<svg width="42" height="42" viewBox="0 0 42 42" fill="none" xmlns="http://www.w3.org/2000/svg">
<g clip-path="url(#clip0_25_314)">
<path d="M24.3022 38.3474C17.9403 44.391 7.38916 41.3186 5.3065 32.8194L0.835518 14.5663C-1.24715 6.06715 6.70294 -1.48439 15.1475 0.971203L33.2771 6.24595C41.7186 8.70154 44.3227 19.3255 37.9609 25.3692L24.3022 38.3444V38.3474Z" fill="url(#paint0_linear_25_314)"/>
<path d="M23.4782 34.0138C18.7046 38.5465 10.7875 36.2429 9.22622 29.8656L5.87298 16.1721C4.30874 9.79469 10.275 4.12955 16.6099 5.97125L30.2117 9.9288C36.5466 11.7735 38.4974 19.7422 33.7267 24.2779L23.4782 34.0138Z" fill="url(#paint1_linear_25_314)"/>
<path d="M23.7719 15.2006H25.3661V12.441C25.0904 12.4023 24.1465 12.3188 23.0437 12.3188C20.7453 12.3188 19.1721 13.7552 19.1721 16.3986V18.8303H16.6369V21.9177H19.1721V29.6838H22.2826V21.9177H24.7158L25.1024 18.8303H22.2826V16.7026C22.2826 15.8115 22.5253 15.2006 23.7749 15.2006H23.7719Z" fill="#EBF6FF"/>
</g>
<defs>
<linearGradient id="paint0_linear_25_314" x1="0.740031" y1="7.96654" x2="34.0075" y2="31.3907" gradientUnits="userSpaceOnUse">
<stop stop-color="#FBFBFC"/>
<stop offset="1" stop-color="#DBDDE8"/>
</linearGradient>
<linearGradient id="paint1_linear_25_314" x1="5.79923" y1="11.2205" x2="30.7614" y2="28.7943" gradientUnits="userSpaceOnUse">
<stop offset="0.05" stop-color="#839FC9"/>
<stop offset="1" stop-color="#385196"/>
</linearGradient>
<clipPath id="clip0_25_314">
<rect width="41" height="41" fill="white" transform="translate(0.5 0.5)"/>
</clipPath>
</defs>
</svg>
