<svg width="43" height="42" viewBox="0 0 43 42" fill="none" xmlns="http://www.w3.org/2000/svg">
<g clip-path="url(#clip0_25_296)">
<path d="M24.8828 38.7705C18.3658 44.9615 7.55729 41.8141 5.42383 33.1076L0.8438 14.4094C-1.28966 5.70291 6.85432 -2.03281 15.5048 0.482672L34.0767 5.88607C42.7241 8.40156 45.3917 19.2847 38.8746 25.4757L24.8828 38.7674V38.7705Z" fill="url(#paint0_linear_25_296)"/>
<path d="M24.0387 34.3314C19.1486 38.9747 11.0384 36.6149 9.43904 30.0819L6.00402 16.0545C4.40162 9.52155 10.5134 3.71823 17.0028 5.60485L30.9363 9.65892C37.4257 11.5486 39.4241 19.7117 34.5371 24.358L24.0387 34.3314Z" fill="url(#paint1_linear_25_296)"/>
<path d="M26.3256 27.9266C27.314 27.548 28.0937 26.7696 28.4775 25.7866C28.6586 25.3226 28.7844 24.7914 28.8182 24.0129C28.8274 23.8298 28.8336 23.6771 28.8397 23.5245V18.3348C28.8366 18.2249 28.8305 18.115 28.8243 17.9868C28.7906 17.2114 28.6647 16.6771 28.4836 16.2131C28.2964 15.7216 28.0109 15.282 27.6333 14.9157C27.2649 14.5433 26.8198 14.2563 26.3317 14.0731C25.8651 13.893 25.331 13.7678 24.5482 13.7343C23.7624 13.6976 23.5106 13.6885 21.5153 13.6885C19.52 13.6885 19.2683 13.6976 18.4855 13.7312C17.7058 13.7648 17.1686 13.89 16.702 14.0701C16.2078 14.2563 15.7657 14.5402 15.3974 14.9157C15.0229 15.282 14.7343 15.7247 14.5501 16.2101C14.369 16.6741 14.2431 17.2053 14.2094 17.9837C14.1725 18.7652 14.1633 19.0156 14.1633 20.9999C14.1633 22.9842 14.1725 23.2345 14.2063 24.0129C14.2401 24.7883 14.3659 25.3226 14.547 25.7866C14.7343 26.2781 15.0229 26.7177 15.3974 27.084C15.7657 27.4565 16.2108 27.7434 16.6989 27.9266C17.1655 28.1067 17.6997 28.2319 18.4824 28.2654C19.2652 28.299 19.5169 28.3082 21.5123 28.3082C23.5076 28.3082 23.7562 28.299 24.5421 28.2654C25.3218 28.2319 25.859 28.1067 26.3256 27.9266ZM21.5184 26.9955C19.5568 26.9955 19.3205 26.9863 18.55 26.9528C17.8317 26.9222 17.4449 26.8001 17.187 26.7024C16.8678 26.5864 16.5792 26.4002 16.3428 26.156C16.1003 25.9179 15.9131 25.634 15.7934 25.3165C15.6921 25.06 15.5723 24.6723 15.5416 23.961C15.5079 23.1887 15.4987 22.9597 15.4987 21.009C15.4987 19.0583 15.5079 18.8232 15.5416 18.057C15.5723 17.3426 15.6951 16.958 15.7934 16.7016C15.91 16.3841 16.0973 16.0971 16.3459 15.862C16.5853 15.6178 16.8708 15.4347 17.1901 15.3156C17.4479 15.2149 17.8378 15.0958 18.553 15.0653C19.3297 15.0317 19.5599 15.0225 21.5215 15.0225C23.483 15.0225 23.7194 15.0317 24.4899 15.0653C25.2082 15.0958 25.595 15.2179 25.8528 15.3156C26.1721 15.4316 26.4607 15.6178 26.697 15.862C26.9426 16.1002 27.1268 16.3841 27.2465 16.7016C27.3478 16.958 27.4675 17.3457 27.4982 18.057C27.532 18.8293 27.5412 19.0583 27.5412 21.009C27.5412 22.9597 27.532 23.1887 27.4982 23.958C27.4675 24.6723 27.3447 25.057 27.2465 25.3134C27.0009 25.9515 26.4914 26.4552 25.8498 26.7024C25.5919 26.8032 25.2021 26.9222 24.4868 26.9528C23.7102 26.9863 23.48 26.9955 21.5184 26.9955Z" fill="white"/>
<path d="M21.5153 17.248C19.431 17.248 17.7396 18.9301 17.7396 21.003C17.7396 23.0758 19.431 24.7579 21.5153 24.7579C23.5997 24.7579 25.2911 23.0758 25.2911 21.003C25.2911 18.9301 23.5997 17.248 21.5153 17.248ZM21.5153 23.4391C20.1616 23.4391 19.0657 22.3492 19.0657 21.003C19.0657 19.6567 20.1616 18.5668 21.5153 18.5668C22.8691 18.5668 23.965 19.6567 23.965 21.003C23.965 22.3492 22.8691 23.4391 21.5153 23.4391Z" fill="white"/>
<path d="M26.3225 17.0983C26.3225 16.6129 25.9265 16.2222 25.4415 16.2222C24.9565 16.2222 24.5605 16.616 24.5605 17.0983C24.5605 17.5807 24.9565 17.9745 25.4415 17.9745C25.9265 17.9745 26.3225 17.5807 26.3225 17.0983Z" fill="white"/>
</g>
<defs>
<linearGradient id="paint0_linear_25_296" x1="0.745292" y1="7.64548" x2="34.8242" y2="31.641" gradientUnits="userSpaceOnUse">
<stop stop-color="#FBFBFC"/>
<stop offset="1" stop-color="#DBDDE8"/>
</linearGradient>
<linearGradient id="paint1_linear_25_296" x1="5.93072" y1="10.9798" x2="31.4979" y2="28.9844" gradientUnits="userSpaceOnUse">
<stop stop-color="#FCA759"/>
<stop offset="0.19" stop-color="#E82D56"/>
<stop offset="0.74" stop-color="#A22DB4"/>
<stop offset="1" stop-color="#643DCE"/>
</linearGradient>
<clipPath id="clip0_25_296">
<rect width="42" height="42" fill="white" transform="translate(0.5)"/>
</clipPath>
</defs>
</svg>
