<svg width="42" height="42" viewBox="0 0 42 42" fill="none" xmlns="http://www.w3.org/2000/svg">
<g clip-path="url(#clip0_25_303)">
<path d="M24.3022 38.3474C17.9404 44.391 7.38919 41.3186 5.30653 32.8194L0.835549 14.5663C-1.24711 6.06715 6.70296 -1.48439 15.1475 0.971203L33.2771 6.24595C41.7187 8.70154 44.3228 19.3255 37.9609 25.3692L24.3022 38.3444V38.3474Z" fill="url(#paint0_linear_25_303)"/>
<path d="M23.4782 34.0138C18.7046 38.5465 10.7875 36.2429 9.22622 29.8656L5.87298 16.1721C4.30874 9.79469 10.275 4.12955 16.6099 5.97125L30.2117 9.9288C36.5466 11.7735 38.4974 19.7422 33.7267 24.2779L23.4782 34.0138Z" fill="url(#paint1_linear_25_303)"/>
<path d="M27.6435 27.6095H27.6465V22.7609C27.6465 20.3888 27.1341 18.562 24.3442 18.562C23.0047 18.562 22.1028 19.2921 21.7372 19.9865H21.6982V18.7825H19.0552V27.6095H21.8091V23.2378C21.8091 22.0875 22.0278 20.9729 23.4602 20.9729C24.8926 20.9729 24.8926 22.2871 24.8926 23.3093V27.6066H27.6435V27.6095Z" fill="#2176CC"/>
<path d="M17.3291 18.7856H14.5722V27.6127H17.3291V18.7856Z" fill="#2176CC"/>
<path d="M15.9507 14.3901C15.0697 14.3901 14.3535 15.1024 14.3535 15.9785C14.3535 16.8547 15.0697 17.5818 15.9507 17.5818C16.8317 17.5818 17.5479 16.8547 17.5479 15.9785C17.5479 15.1024 16.8317 14.3901 15.9507 14.3901Z" fill="#2176CC"/>
<path d="M27.3798 27.3476H27.3828V22.6927C27.3828 20.4159 26.8884 18.6606 24.2124 18.6606C22.9238 18.6606 22.0608 19.3639 21.7102 20.0285H21.6742V18.8722H19.1361V27.3476H21.7791V23.1516C21.7791 22.046 21.9889 20.9792 23.3643 20.9792C24.7398 20.9792 24.7398 22.2397 24.7398 23.2232V27.3506H27.3798V27.3476Z" fill="#F8F8F8"/>
<path d="M17.476 18.8721H14.8299V27.3474H17.476V18.8721Z" fill="#F8F8F8"/>
<path d="M16.1514 14.6523C15.3064 14.6523 14.6172 15.3348 14.6172 16.1781C14.6172 17.0215 15.3034 17.7159 16.1514 17.7159C16.9995 17.7159 17.6827 17.0185 17.6827 16.1781C17.6827 15.3378 16.9965 14.6523 16.1514 14.6523Z" fill="#F8F8F8"/>
</g>
<defs>
<linearGradient id="paint0_linear_25_303" x1="0.739701" y1="7.96692" x2="34.0072" y2="31.3911" gradientUnits="userSpaceOnUse">
<stop stop-color="#FBFBFC"/>
<stop offset="1" stop-color="#DBDDE8"/>
</linearGradient>
<linearGradient id="paint1_linear_25_303" x1="5.79887" y1="11.2208" x2="30.7611" y2="28.7947" gradientUnits="userSpaceOnUse">
<stop stop-color="#7BC3FF"/>
<stop offset="1" stop-color="#2176CC"/>
</linearGradient>
<clipPath id="clip0_25_303">
<rect width="41" height="41" fill="white" transform="translate(0.5 0.5)"/>
</clipPath>
</defs>
</svg>
