<svg width="42" height="42" viewBox="0 0 42 42" fill="none" xmlns="http://www.w3.org/2000/svg">
<g clip-path="url(#clip0_25_318)">
<path d="M24.3023 38.3469C17.9404 44.3905 7.38929 41.3181 5.30662 32.8189L0.83564 14.5659C-1.24702 6.06666 6.70306 -1.48487 15.1476 0.970715L33.2772 6.24546C41.7188 8.70105 44.3228 19.3251 37.961 25.3687L24.3023 38.344V38.3469Z" fill="url(#paint0_linear_25_318)"/>
<path d="M23.4782 34.0138C18.7046 38.5465 10.7875 36.2429 9.22622 29.8656L5.87298 16.1721C4.30874 9.79469 10.275 4.12955 16.6099 5.97125L30.2117 9.9288C36.5466 11.7735 38.4974 19.7422 33.7267 24.2779L23.4782 34.0138Z" fill="url(#paint1_linear_25_318)"/>
<path fill-rule="evenodd" clip-rule="evenodd" d="M26.1962 15.8026C24.8177 14.4288 22.9838 13.6749 21.03 13.6719C17.0055 13.6719 13.7302 16.9291 13.7272 20.9343C13.7272 22.2158 14.0628 23.4644 14.7011 24.5641L13.6642 28.3279L17.5359 27.3177C18.6027 27.8958 19.8044 28.1998 21.027 28.2028C25.0515 28.2028 28.3268 24.9455 28.3298 20.9403C28.3298 19.0003 27.5716 17.1765 26.1932 15.8026H26.1962ZM21.03 26.975C19.9422 26.975 18.8724 26.6829 17.9404 26.1346L17.7187 26.0035L15.4203 26.6025L16.0346 24.3763L15.8907 24.1469C15.2824 23.1873 14.9618 22.0757 14.9618 20.9343C14.9618 17.6056 17.6857 14.8997 21.033 14.8997C22.6542 14.8997 24.1794 15.5285 25.3242 16.6698C26.4689 17.8112 27.1012 19.3281 27.1012 20.9403C27.1012 24.2691 24.3772 26.978 21.03 26.978V26.975ZM24.3592 22.4542C24.1765 22.3648 23.2805 21.9237 23.1126 21.8641C22.9448 21.8045 22.825 21.7747 22.7021 21.9535C22.5792 22.1353 22.2316 22.5436 22.1238 22.6658C22.0159 22.788 21.911 22.8029 21.7282 22.7105C21.5454 22.6211 20.9581 22.4274 20.2598 21.8105C19.7175 21.3307 19.3519 20.7347 19.244 20.5529C19.1391 20.3711 19.244 20.2817 19.3249 20.1834C19.5227 19.939 19.7204 19.6827 19.7804 19.5635C19.8403 19.4413 19.8103 19.337 19.7654 19.2446C19.7205 19.1552 19.3549 18.2612 19.202 17.8976C19.0552 17.543 18.9024 17.5907 18.7915 17.5847C18.6866 17.5788 18.5637 17.5788 18.4409 17.5788C18.318 17.5788 18.1202 17.6235 17.9554 17.8053C17.7876 17.987 17.3171 18.4251 17.3171 19.3191C17.3171 20.2132 17.9704 21.0744 18.0633 21.1966C18.1532 21.3188 19.3489 23.1515 21.1798 23.9353C21.6143 24.123 21.9559 24.2333 22.2196 24.3167C22.6572 24.4538 23.0557 24.4359 23.3704 24.3883C23.721 24.3346 24.4491 23.9502 24.602 23.524C24.7548 23.1009 24.7548 22.7373 24.7069 22.6598C24.6619 22.5853 24.539 22.5376 24.3562 22.4482L24.3592 22.4542Z" fill="#009E47"/>
<path fill-rule="evenodd" clip-rule="evenodd" d="M26.0553 15.9427C24.7128 14.6077 22.9298 13.8716 21.03 13.8716C17.1133 13.8716 13.9249 17.0424 13.9249 20.9374C13.9249 22.183 14.2516 23.3989 14.8719 24.4688L13.865 28.1313L17.6318 27.1479C18.6686 27.7111 19.8373 28.0061 21.027 28.0091C24.9436 28.0091 28.132 24.8383 28.132 20.9433C28.132 19.0539 27.3948 17.2808 26.0523 15.9457L26.0553 15.9427ZM21.03 26.8141C19.9691 26.8141 18.9323 26.531 18.0243 25.9946L17.8086 25.8664L15.5731 26.4505L16.1694 24.284L16.0286 24.0605C15.4382 23.1247 15.1266 22.046 15.1266 20.9344C15.1266 17.695 17.7786 15.0606 21.0359 15.0606C22.6122 15.0606 24.0955 15.6716 25.2103 16.7831C26.325 17.8947 26.9393 19.3698 26.9393 20.9374C26.9393 24.1767 24.2873 26.8111 21.0329 26.8111L21.03 26.8141ZM24.2693 22.4155C24.0925 22.3261 23.2175 21.8999 23.0557 21.8403C22.8939 21.7807 22.774 21.7509 22.6571 21.9297C22.5403 22.1056 22.1986 22.5049 22.0938 22.6211C21.9889 22.7403 21.887 22.7522 21.7102 22.6658C21.5334 22.5764 20.961 22.3916 20.2838 21.7897C19.7564 21.3218 19.3998 20.7437 19.2949 20.5678C19.19 20.392 19.2949 20.3056 19.3728 20.2072C19.5646 19.9688 19.7564 19.7215 19.8163 19.6023C19.8762 19.4831 19.8463 19.3818 19.8013 19.2924C19.7564 19.203 19.4028 18.3357 19.2529 17.9811C19.1091 17.6354 18.9623 17.6831 18.8544 17.6771C18.7495 17.6712 18.6326 17.6712 18.5128 17.6712C18.3929 17.6712 18.2011 17.7159 18.0393 17.8917C17.8775 18.0675 17.419 18.4967 17.419 19.3639C17.419 20.2311 18.0543 21.0715 18.1442 21.1907C18.2341 21.3099 19.3968 23.092 21.1768 23.8578C21.5993 24.0396 21.9319 24.1469 22.1896 24.2304C22.6152 24.3645 23.0017 24.3466 23.3074 24.3019C23.649 24.2512 24.3562 23.8757 24.5061 23.4615C24.6529 23.0502 24.6529 22.6956 24.6109 22.6211C24.566 22.5466 24.4491 22.5019 24.2693 22.4155Z" fill="#EEFFF6"/>
</g>
<defs>
<linearGradient id="paint0_linear_25_318" x1="0.738433" y1="7.96283" x2="34.0059" y2="31.387" gradientUnits="userSpaceOnUse">
<stop stop-color="#FBFBFC"/>
<stop offset="1" stop-color="#DBDDE8"/>
</linearGradient>
<linearGradient id="paint1_linear_25_318" x1="5.80038" y1="11.2181" x2="30.7588" y2="28.794" gradientUnits="userSpaceOnUse">
<stop offset="0.05" stop-color="#89D3AA"/>
<stop offset="1" stop-color="#02B456"/>
</linearGradient>
<clipPath id="clip0_25_318">
<rect width="41" height="41" fill="white" transform="translate(0.5 0.5)"/>
</clipPath>
</defs>
</svg>
